<svg width="19" height="18" viewBox="0 0 19 18" fill="none" xmlns="http://www.w3.org/2000/svg">
<path fill-rule="evenodd" clip-rule="evenodd" d="M9.49995 17.8C14.3601 17.8 18.2999 13.8601 18.2999 9.00001C18.2999 4.13991 14.3601 0.200012 9.49995 0.200012C4.63985 0.200012 0.699951 4.13991 0.699951 9.00001C0.699951 13.8601 4.63985 17.8 9.49995 17.8ZM13.5778 8.22219L10.2778 4.92219C9.84819 4.49262 9.15171 4.49262 8.72213 4.92219C8.29256 5.35177 8.29256 6.04825 8.72213 6.47783L10.1443 7.90001L6.19995 7.90001C5.59244 7.90001 5.09995 8.3925 5.09995 9.00001C5.09995 9.60752 5.59244 10.1 6.19995 10.1H10.1443L8.72213 11.5222C8.29256 11.9518 8.29256 12.6483 8.72213 13.0778C9.15171 13.5074 9.84819 13.5074 10.2778 13.0778L13.5778 9.77783C14.0073 9.34825 14.0073 8.65177 13.5778 8.22219Z" fill="#0F1A2A"/>
</svg>
